<svg width="46" height="46" viewBox="0 0 46 46" fill="none" xmlns="http://www.w3.org/2000/svg">
<g clip-path="url(#clip0_14_1204)">
<path d="M30.7607 24.3794C28.6908 21.1503 25.1655 19.2222 21.3303 19.2222C17.4951 19.2222 13.9698 21.1503 11.9002 24.3794L6.91248 32.1604C6.08493 33.4512 5.7031 34.9427 5.80803 36.4725C5.91297 38.0027 6.4952 39.4275 7.49155 40.5941C8.48861 41.7596 9.80608 42.5563 11.3015 42.8981C12.7969 43.2399 14.3299 43.0939 15.7344 42.4766L15.8284 42.4348C19.3625 40.9124 23.4009 40.9265 26.9259 42.4766C27.8352 42.8763 28.7986 43.0785 29.7707 43.0785C30.2992 43.0785 30.8309 43.0185 31.3577 42.8985C32.8531 42.557 34.1706 41.7603 35.168 40.5945C36.1647 39.4289 36.7473 38.0037 36.8526 36.4732C36.9578 34.9427 36.576 33.4515 35.7485 32.16L30.7607 24.3794Z" fill="#E9473C"/>
<path d="M8.25619 24.3692C9.74001 23.7993 10.8673 22.6036 11.4302 21.0022C11.9661 19.4784 11.9222 17.758 11.3063 16.1577C10.69 14.5584 9.5691 13.2528 8.14985 12.4811C6.659 11.6707 5.02111 11.5388 3.53974 12.1098C0.559455 13.2556 -0.808205 16.9385 0.491371 20.3214C1.52949 23.0139 3.95071 24.7135 6.3986 24.7135C7.02364 24.7135 7.65044 24.6026 8.25619 24.3692Z" fill="#E9473C"/>
<path d="M17.9339 18.273C21.6596 18.273 24.6908 14.8197 24.6908 10.5749C24.6908 6.32907 21.6596 2.875 17.9339 2.875C14.2086 2.875 11.1777 6.32907 11.1777 10.5749C11.1777 14.8197 14.2086 18.273 17.9339 18.273Z" fill="#E9473C"/>
<path d="M29.6033 20.1641H29.6036C30.1767 20.3543 30.7614 20.4452 31.3436 20.4452C34.0607 20.4452 36.7087 18.4676 37.719 15.4284C38.3009 13.6789 38.2627 11.829 37.6113 10.2199C36.9298 8.53531 35.6667 7.31259 34.0544 6.77669C32.4418 6.24078 30.6979 6.46434 29.1435 7.40559C27.6586 8.30473 26.5209 9.76364 25.9397 11.5131C24.7131 15.2038 26.3566 19.0846 29.6033 20.1641Z" fill="#E9473C"/>
<path d="M43.8329 19.2659L43.8318 19.2649C41.2625 17.3669 37.4199 18.1895 35.2654 21.0996C33.113 24.0111 33.4496 27.9253 36.0151 29.8247C36.9507 30.5178 38.0562 30.8491 39.1877 30.8491C41.1597 30.8491 43.2113 29.8426 44.5829 27.9916C46.7349 25.0801 46.3987 21.166 43.8329 19.2659Z" fill="#E9473C"/>
</g>
<defs>
<clipPath id="clip0_14_1204">
<rect width="46" height="46" fill="white"/>
</clipPath>
</defs>
</svg>
